<svg xmlns="http://www.w3.org/2000/svg" width="1600" height="900" viewBox="0 0 1600 900"><defs><marker id="arrow-blue" viewBox="0 0 10 10" refX="10" refY="5" markerWidth="8" markerHeight="8" orient="auto"><path d="M 0 0 L 10 5 L 0 10 z" fill="#4285E1"/></marker></defs><rect width="1600" height="900" fill="#F7F9FC"/><g font-family="Microsoft YaHei,Arial" text-anchor="middle"><text x="800" y="75" font-size="42" font-weight="700" fill="#163B66">角色表达：计划—生成—校验—回退</text><text x="800" y="116" font-size="22" fill="#56718E">沉浸感建立在审核事实、路线状态和质量门之上</text>
<g stroke-width="3"><rect x="75" y="260" width="255" height="130" rx="18" fill="#EAF2FF" stroke="#73A4F5"/><rect x="430" y="260" width="255" height="130" rx="18" fill="#F1EDFF" stroke="#9C86D8"/><polygon points="880,230 1040,325 880,420 720,325" fill="#FFF4E7" stroke="#E6A14B"/><rect x="1170" y="190" width="290" height="125" rx="18" fill="#EBF8F1" stroke="#62BE90"/><rect x="1170" y="470" width="290" height="125" rx="18" fill="#FCECEF" stroke="#DB7C8E"/></g>
<g font-size="20" fill="#274966"><text x="202" y="305" font-weight="700">确定性输入</text><text x="202" y="342"><tspan x="202" dy="0">审核事实、路线、状态</tspan><tspan x="202" dy="28">安全边界</tspan></text><text x="558" y="305" font-weight="700">ContentPlan</text><text x="558" y="342"><tspan x="558" dy="0">结构、预算、角色模式</tspan><tspan x="558" dy="28">必需事实</tspan></text><text x="880" y="317" font-weight="700">质量门</text><text x="880" y="352">Schema · 事实 · 路线</text><text x="880" y="382">安全 · 预算 · 风格</text><text x="1315" y="238" font-weight="700">有限 Active</text><text x="1315" y="278">白名单命中且全部通过</text><text x="1315" y="518" font-weight="700">稳定正文 / 回退</text><text x="1315" y="558">Shadow 或任一校验失败</text></g>
<g fill="none" stroke="#4285E1" stroke-width="5" stroke-linecap="round" stroke-linejoin="round" marker-end="url(#arrow-blue)"><path d="M335 325 H420"/><path d="M690 325 H710"/><path d="M997 300 H1170"/><path d="M973 365 L1170 532"/></g>
<rect x="245" y="675" width="1110" height="95" rx="18" fill="#FFFFFF" stroke="#C9D7E7" stroke-width="2"/><text x="800" y="733" font-size="25" fill="#1756A9">无论 Active 还是回退，Coverage 都只提交一次并留存 LangSmith 审计记录</text></g></svg>
